
<?xml version="1.0" encoding="iso-8859-1"?>
<!-- Generator: Adobe Illustrator 19.0.0, SVG Export Plug-In . SVG Version: 6.00 Build 0)  -->
<svg version="1.1" id="Layer_1" xmlns="http://www.w3.org/2000/svg" xmlns:xlink="http://www.w3.org/1999/xlink" x="0px" y="0px"
	 viewBox="0 0 503.607 503.607" style="enable-background:new 0 0 503.607 503.607;" xml:space="preserve">
<g>
	<g>
		<path d="M444.852,369.891v-17.366c0-46.281-37.653-83.934-83.934-83.934H260.197V218.23h205.287
			c11.759,0,21.336-9.577,21.336-21.336V21.336C486.82,9.577,477.243,0,465.484,0H38.123C26.364,0,16.787,9.577,16.787,21.336
			v175.557c0,11.759,9.577,21.336,21.336,21.336H243.41v50.361H142.689c-46.281,0-83.934,37.653-83.934,83.934v17.366
			C25.684,374.045,0,402.281,0,436.459c0,37.023,30.124,67.148,67.148,67.148c37.023,0,67.148-30.124,67.148-67.148
			c0-34.178-25.684-62.414-58.754-66.568v-17.366c0-37.023,30.124-67.148,67.148-67.148H243.41v84.514
			c-33.07,4.155-58.754,32.39-58.754,66.568c0,37.023,30.124,67.148,67.148,67.148c37.023,0,67.148-30.124,67.148-67.148
			c0-34.178-25.684-62.414-58.754-66.568v-84.514h100.721c37.023,0,67.148,30.124,67.148,67.148v17.366
			c-33.07,4.155-58.754,32.39-58.754,66.568c0,37.023,30.124,67.148,67.148,67.148c37.023,0,67.148-30.124,67.148-67.148
			C503.607,402.281,477.923,374.045,444.852,369.891z M436.459,167.869H318.951c-4.642,0-8.393-3.752-8.393-8.393
			c0-4.642,3.752-8.393,8.393-8.393h117.508c4.642,0,8.393,3.752,8.393,8.393C444.852,164.117,441.101,167.869,436.459,167.869z
			 M285.377,117.508h58.754c4.642,0,8.393,3.752,8.393,8.393c0,4.642-3.752,8.393-8.393,8.393h-58.754
			c-4.642,0-8.393-3.752-8.393-8.393C276.984,121.26,280.735,117.508,285.377,117.508z M260.197,100.721
			c-4.642,0-8.393-3.752-8.393-8.393c0-4.642,3.752-8.393,8.393-8.393h25.18c4.642,0,8.393,3.752,8.393,8.393
			c0,4.642-3.752,8.393-8.393,8.393H260.197z M369.311,125.902c0-4.642,3.752-8.393,8.393-8.393h16.787
			c4.642,0,8.393,3.752,8.393,8.393c0,4.642-3.752,8.393-8.393,8.393h-16.787C373.063,134.295,369.311,130.543,369.311,125.902z
			 M436.459,134.295h-8.393c-4.642,0-8.393-3.752-8.393-8.393c0-4.642,3.752-8.393,8.393-8.393h8.393
			c4.642,0,8.393,3.752,8.393,8.393C444.852,130.543,441.101,134.295,436.459,134.295z M436.459,100.721H318.951
			c-4.642,0-8.393-3.752-8.393-8.393c0-4.642,3.752-8.393,8.393-8.393h117.508c4.642,0,8.393,3.752,8.393,8.393
			C444.852,96.969,441.101,100.721,436.459,100.721z M419.672,50.361h16.787c4.642,0,8.393,3.752,8.393,8.393
			c0,4.642-3.752,8.393-8.393,8.393h-16.787c-4.642,0-8.393-3.752-8.393-8.393C411.279,54.113,415.031,50.361,419.672,50.361z
			 M285.377,50.361h100.721c4.642,0,8.393,3.752,8.393,8.393c0,4.642-3.752,8.393-8.393,8.393H285.377
			c-4.642,0-8.393-3.752-8.393-8.393C276.984,54.113,280.735,50.361,285.377,50.361z M209.836,50.361h41.967
			c4.642,0,8.393,3.752,8.393,8.393c0,4.642-3.752,8.393-8.393,8.393h-41.967c-4.642,0-8.393-3.752-8.393-8.393
			C201.443,54.113,205.195,50.361,209.836,50.361z M109.115,100.721c-4.642,0-8.393-3.752-8.393-8.393
			c0-4.642,3.752-8.393,8.393-8.393h117.508c4.642,0,8.393,3.752,8.393,8.393c0,4.642-3.752,8.393-8.393,8.393H109.115z
			 M201.443,125.902c0,4.642-3.752,8.393-8.393,8.393h-16.787c-4.642,0-8.393-3.752-8.393-8.393c0-4.642,3.752-8.393,8.393-8.393
			h16.787C197.691,117.508,201.443,121.26,201.443,125.902z M67.148,50.361h109.115c4.642,0,8.393,3.752,8.393,8.393
			c0,4.642-3.752,8.393-8.393,8.393H67.148c-4.642,0-8.393-3.752-8.393-8.393C58.754,54.113,62.506,50.361,67.148,50.361z
			 M67.148,83.934h8.393c4.642,0,8.393,3.752,8.393,8.393c0,4.642-3.752,8.393-8.393,8.393h-8.393c-4.642,0-8.393-3.752-8.393-8.393
			C58.754,87.686,62.506,83.934,67.148,83.934z M67.148,117.508h75.541c4.642,0,8.393,3.752,8.393,8.393
			c0,4.642-3.752,8.393-8.393,8.393H67.148c-4.642,0-8.393-3.752-8.393-8.393C58.754,121.26,62.506,117.508,67.148,117.508z
			 M75.541,167.869h-8.393c-4.642,0-8.393-3.752-8.393-8.393c0-4.642,3.752-8.393,8.393-8.393h8.393
			c4.642,0,8.393,3.752,8.393,8.393C83.934,164.117,80.183,167.869,75.541,167.869z M226.623,167.869H109.115
			c-4.642,0-8.393-3.752-8.393-8.393c0-4.642,3.752-8.393,8.393-8.393h117.508c4.642,0,8.393,3.752,8.393,8.393
			C235.016,164.117,231.265,167.869,226.623,167.869z M243.41,134.295h-16.787c-4.642,0-8.393-3.752-8.393-8.393
			c0-4.642,3.752-8.393,8.393-8.393h16.787c4.642,0,8.393,3.752,8.393,8.393C251.803,130.543,248.051,134.295,243.41,134.295z
			 M251.803,159.475c0-4.642,3.752-8.393,8.393-8.393h25.18c4.642,0,8.393,3.752,8.393,8.393c0,4.642-3.752,8.393-8.393,8.393
			h-25.18C255.555,167.869,251.803,164.117,251.803,159.475z"/>
	</g>
</g>
<g>
</g>
<g>
</g>
<g>
</g>
<g>
</g>
<g>
</g>
<g>
</g>
<g>
</g>
<g>
</g>
<g>
</g>
<g>
</g>
<g>
</g>
<g>
</g>
<g>
</g>
<g>
</g>
<g>
</g>
</svg>
