<?xml version="1.0" encoding="UTF-8" standalone="no"?>
<?xml version="1.0" encoding="UTF-8"?><svg
   width="20"
   height="20"
   viewBox="0 0 20 20"
   version="1.1"
   id="svg45"
   xmlns="http://www.w3.org/2000/svg"
   xmlns:svg="http://www.w3.org/2000/svg"
   xmlns:rdf="http://www.w3.org/1999/02/22-rdf-syntax-ns#"
   xmlns:cc="http://creativecommons.org/ns#"
   xmlns:dc="http://purl.org/dc/elements/1.1/">
  <defs
     id="defs49" />
  <!-- Uploaded to SVGRepo https://www.svgrepo.com -->
  <title
     id="title38">ic_fluent_screenshot_24_filled</title>
  <desc
     id="desc40">Created with Sketch.</desc>
  <g
     transform="translate(-3,-3)">
    <g>
      <path
         d="m 18.826643,3 c 2.300214,0 4.164906,1.8646919 4.164906,4.1649059 V 18.826643 c 0,2.300214 -1.864692,4.164906 -4.164906,4.164906 H 7.1649059 C 4.8646919,22.991549 3,21.126857 3,18.826643 V 7.1649059 C 3,4.8646919 4.8646919,3 7.1649059,3 Z m 0,11.106416 c -0.421707,0 -0.77022,0.313372 -0.825377,0.71995 l -0.0076,0.113031 v 2.498944 c 0,0.272576 -0.196482,0.499344 -0.455514,0.546372 l -0.09981,0.0089 h -2.498944 c -0.460043,0 -0.832981,0.372938 -0.832981,0.832982 0,0.421706 0.313372,0.77022 0.71995,0.825376 l 0.113031,0.0076 h 2.498944 c 1.17105,0 2.130397,-0.906117 2.21519,-2.055502 l 0.0061,-0.165781 v -2.498944 c 0,-0.460043 -0.372938,-0.832981 -0.832981,-0.832981 z m -11.6617371,0 c -0.4217059,0 -0.7702199,0.313372 -0.825377,0.71995 l -0.0076,0.113031 v 2.498944 c 0,1.17105 0.9061472,2.130397 2.0555061,2.21519 l 0.165777,0.0061 h 2.498944 c 0.460043,0 0.832981,-0.372938 0.832981,-0.832981 0,-0.421707 -0.313372,-0.77022 -0.71995,-0.825377 l -0.113031,-0.0076 H 8.5532079 c -0.2726156,0 -0.4993532,-0.196482 -0.5463738,-0.455514 l -0.00895,-0.09981 v -2.498944 c 0,-0.460043 -0.3729383,-0.832981 -0.8329812,-0.832981 z M 11.052152,6.3319248 H 8.5532079 l -0.165777,0.0061 C 7.2955399,6.4185741 6.4231475,7.2884383 6.338638,8.3792254 l -0.00671,0.1739825 v 2.4989441 l 0.00761,0.113031 c 0.055153,0.406578 0.4036673,0.71995 0.8253732,0.71995 0.421706,0 0.77022,-0.313372 0.8253771,-0.71995 l 0.0076,-0.113031 V 8.5532079 l 0.00895,-0.099819 C 8.0479771,8.226716 8.226716,8.0479771 8.453389,8.0068341 l 0.099819,-0.00895 h 2.498944 l 0.113031,-0.00761 c 0.406578,-0.055153 0.71995,-0.4036673 0.71995,-0.8253733 0,-0.4217059 -0.313372,-0.7702199 -0.71995,-0.825377 z m 6.386189,0 h -2.498944 c -0.460043,0 -0.832981,0.3729383 -0.832981,0.8329811 0,0.421706 0.313372,0.77022 0.71995,0.8253771 l 0.113031,0.0076 h 2.498944 c 0.272576,0 0.499344,0.196447 0.546372,0.4555019 l 0.0089,0.099819 v 2.4989441 c 0,0.460043 0.372938,0.832981 0.832982,0.832981 0.421706,0 0.77022,-0.313372 0.825376,-0.71995 l 0.0076,-0.113031 V 8.5532079 c 0,-1.1710186 -0.906117,-2.130394 -2.055502,-2.2151905 z"
         id="🎨-Color"
         style="stroke-width:1.11064" />
    </g>
  </g>
  <metadata
     id="metadata831">
    <rdf:RDF>
      <cc:Work
         rdf:about="">
        <dc:title>ic_fluent_screenshot_24_filled</dc:title>
      </cc:Work>
    </rdf:RDF>
  </metadata>
</svg>
