<svg id="Слой_1" data-name="Слой 1" xmlns="http://www.w3.org/2000/svg" viewBox="0 0 371.75 371.7"><defs><style>.cls-1{fill:#fdff48;}</style></defs><path d="M393.8,384.1V300.53a186.56,186.56,0,0,0-76.67,83.57Z" transform="translate(-300.05 -276.16)"/><path d="M304.34,422.25A186,186,0,0,0,393.8,623.46V422.25Z" transform="translate(-300.05 -276.16)"/><path d="M546.39,286.18V463.12H532.76V370.47h-49V276.16a185.8,185.8,0,0,0-57.23,9.67V638.16a185.81,185.81,0,0,0,59.44,9.71c102.65,0,185.87-83.22,185.87-185.88A186,186,0,0,0,546.39,286.18Z" transform="translate(-300.05 -276.16)"/><rect class="cls-1" x="190.49" y="122.97" width="23.12" height="23.12"/><rect class="cls-1" x="295.1" y="107.16" width="31.17" height="31.17"/><rect class="cls-1" x="295.1" y="177.98" width="31.17" height="31.17"/></svg>